<?xml version="1.0" standalone="no"?>
<!DOCTYPE svg PUBLIC "-//W3C//DTD SVG 20010904//EN"
 "http://www.w3.org/TR/2001/REC-SVG-20010904/DTD/svg10.dtd">
<svg version="1.0" xmlns="http://www.w3.org/2000/svg"
 width="173.000000pt" height="173.000000pt" viewBox="0 0 173.000000 173.000000"
 preserveAspectRatio="xMidYMid meet">
<metadata>
Created by potrace 1.14, written by Peter Selinger 2001-2017
</metadata>
<g transform="translate(0.000000,173.000000) scale(0.100000,-0.100000)"
fill="#000000" stroke="none">
<path d="M0 865 l0 -865 865 0 865 0 0 865 0 865 -865 0 -865 0 0 -865z m1189
840 c92 -19 129 -35 176 -76 74 -65 92 -152 44 -213 -50 -64 -121 -71 -254
-26 -49 17 -107 30 -130 30 -75 0 -271 -76 -377 -146 -133 -89 -199 -189 -219
-334 -38 -285 135 -547 395 -600 104 -21 233 9 309 71 l37 30 0 133 0 132
-177 0 c-172 -1 -179 0 -222 24 -64 36 -86 70 -86 135 0 44 5 59 31 91 48 60
64 62 405 63 l305 1 45 -29 c93 -59 106 -181 25 -235 l-26 -16 0 -178 c0 -97
-5 -197 -11 -221 -13 -56 -53 -108 -132 -167 -135 -101 -272 -148 -432 -148
-123 1 -201 20 -320 78 -207 102 -347 275 -421 521 -24 80 -27 107 -28 240 -1
128 3 162 22 230 48 167 143 312 265 402 110 81 326 179 458 208 86 18 232 18
318 0z"/>
<path d="M1032 1569 c-60 -11 -151 -55 -159 -75 -8 -20 8 -48 30 -52 9 -2 46
8 81 22 78 31 174 35 247 9 53 -19 81 -12 87 21 6 28 -17 45 -85 66 -68 21
-128 24 -201 9z"/>
<path d="M589 1442 c-85 -57 -136 -101 -164 -142 -22 -32 -25 -42 -15 -59 18
-35 50 -25 107 34 29 30 80 73 113 95 65 44 79 79 41 100 -25 13 -18 15 -82
-28z"/>
<path d="M270 1135 c-38 -45 -50 -172 -25 -264 17 -64 35 -86 63 -77 28 9 35
37 21 84 -11 39 -8 177 6 218 4 14 1 27 -10 38 -20 20 -39 21 -55 1z"/>
<path d="M874 897 c-18 -10 -18 -51 1 -67 10 -8 70 -12 192 -13 203 -2 190 4
192 -98 1 -62 15 -83 53 -77 22 3 23 8 26 86 l3 82 32 1 c18 1 38 1 46 -1 7
-1 24 1 37 4 35 9 34 63 0 76 -31 11 -562 18 -582 7z"/>
<path d="M358 609 c-23 -13 -22 -31 5 -106 28 -77 80 -153 105 -153 48 0 54
44 14 103 -16 23 -34 61 -41 85 -11 40 -42 82 -58 82 -5 0 -16 -5 -25 -11z"/>
<path d="M1303 468 c-6 -7 -18 -38 -28 -68 -20 -62 -103 -158 -167 -191 -44
-22 -51 -33 -43 -59 18 -56 97 -26 197 77 57 58 71 79 92 142 18 54 22 79 15
93 -11 21 -52 24 -66 6z"/>
<path d="M646 261 c-27 -29 -13 -53 54 -93 53 -31 71 -36 156 -42 103 -8 128
0 122 38 -4 30 -44 46 -119 46 -54 0 -72 5 -111 29 -65 41 -82 45 -102 22z"/>
</g>
</svg>
