{"asset":{"version":"2.0","generator":"Cursor generated Tron cycle"},"scene":0,"scenes":[{"nodes":[14]}],"nodes":[{"name":"body_shell","mesh":0,"translation":[0,0.18,0.08]},{"name":"belly_keel","mesh":1,"translation":[0,0.11,-0.1]},{"name":"rear_fairing","mesh":2,"translation":[0,0.23,-0.88]},{"name":"canopy_glass","mesh":3,"translation":[0,0.44,0.18]},{"name":"side_accent_left","mesh":4,"translation":[0.34,0.22,-0.04]},{"name":"side_accent_right","mesh":4,"translation":[-0.34,0.22,-0.04]},{"name":"front_fork_left","mesh":5,"translation":[0.23,0.27,0.9]},{"name":"front_fork_right","mesh":5,"translation":[-0.23,0.27,0.9]},{"name":"wheel_front","mesh":6,"translation":[0,0.5,1.02]},{"name":"wheel_rear","mesh":6,"translation":[0,0.5,-1.02]},{"name":"wheel_ring_front_left","mesh":7,"translation":[0.145,0.5,1.02],"rotation":[0,0.7071067811865475,0,0.7071067811865476]},{"name":"wheel_ring_rear_left","mesh":7,"translation":[0.145,0.5,-1.02],"rotation":[0,0.7071067811865475,0,0.7071067811865476]},{"name":"wheel_ring_front_right","mesh":7,"translation":[-0.145,0.5,1.02],"rotation":[0,0.7071067811865475,0,0.7071067811865476]},{"name":"wheel_ring_rear_right","mesh":7,"translation":[-0.145,0.5,-1.02],"rotation":[0,0.7071067811865475,0,0.7071067811865476]},{"name":"LightCycleAsset","children":[0,1,2,3,4,5,6,7,8,9,10,11,12,13]}],"meshes":[{"name":"body_shell","primitives":[{"attributes":{"POSITION":0,"NORMAL":1},"indices":2,"material":0}]},{"name":"belly_keel","primitives":[{"attributes":{"POSITION":3,"NORMAL":4},"indices":5,"material":0}]},{"name":"rear_fairing","primitives":[{"attributes":{"POSITION":6,"NORMAL":7},"indices":8,"material":0}]},{"name":"canopy_glass","primitives":[{"attributes":{"POSITION":9,"NORMAL":10},"indices":11,"material":4}]},{"name":"side_accent_bar","primitives":[{"attributes":{"POSITION":12,"NORMAL":13},"indices":14,"material":1}]},{"name":"fork_arm","primitives":[{"attributes":{"POSITION":15,"NORMAL":16},"indices":17,"material":0}]},{"name":"wheel_core","primitives":[{"attributes":{"POSITION":18,"NORMAL":19},"indices":20,"material":2}]},{"name":"wheel_ring","primitives":[{"attributes":{"POSITION":21,"NORMAL":22},"indices":23,"material":3}]}],"materials":[{"name":"BodyShell","pbrMetallicRoughness":{"baseColorFactor":[0.02,0.025,0.035,1],"metallicFactor":0.95,"roughnessFactor":0.28},"emissiveFactor":[0.0,0.02,0.03],"doubleSided":false,"alphaMode":"OPAQUE"},{"name":"BodyAccent","pbrMetallicRoughness":{"baseColorFactor":[0.02,0.05,0.06,1],"metallicFactor":0.35,"roughnessFactor":0.22},"emissiveFactor":[0.0,0.6,0.7],"doubleSided":false,"alphaMode":"OPAQUE"},{"name":"WheelCore","pbrMetallicRoughness":{"baseColorFactor":[0.02,0.02,0.025,1],"metallicFactor":0.82,"roughnessFactor":0.46},"emissiveFactor":[0.0,0.02,0.03],"doubleSided":false,"alphaMode":"OPAQUE"},{"name":"WheelRing","pbrMetallicRoughness":{"baseColorFactor":[0.02,0.08,0.1,1],"metallicFactor":0.15,"roughnessFactor":0.18},"emissiveFactor":[0.0,0.95,1.0],"doubleSided":false,"alphaMode":"OPAQUE"},{"name":"GlassCanopy","pbrMetallicRoughness":{"baseColorFactor":[0.06,0.12,0.16,0.42],"metallicFactor":0.92,"roughnessFactor":0.06},"emissiveFactor":[0.0,0.18,0.22],"doubleSided":true,"alphaMode":"BLEND"}],"buffers":[{"uri":"data:application/octet-stream;base64,","byteLength":15600}],"bufferViews":[{"buffer":0,"byteOffset":0,"byteLength":3888,"target":34962},{"buffer":0,"byteOffset":3888,"byteLength":3888,"target":34962},{"buffer":0,"byteOffset":7776,"byteLength":7824,"target":34963}],"accessors":[{"bufferView":0,"byteOffset":0,"componentType":5126,"count":9,"type":"VEC3","min":[-0.31,0.0,-1.19],"max":[0.31,0.54,1.19]},{"bufferView":1,"byteOffset":0,"componentType":5126,"count":9,"type":"VEC3"},{"bufferView":2,"byteOffset":0,"componentType":5125,"count":42,"type":"SCALAR"},{"bufferView":0,"byteOffset":108,"componentType":5126,"count":24,"type":"VEC3","min":[-0.11,-0.09,-0.54],"max":[0.11,0.09,0.54]},{"bufferView":1,"byteOffset":108,"componentType":5126,"count":24,"type":"VEC3"},{"bufferView":2,"byteOffset":168,"componentType":5125,"count":36,"type":"SCALAR"},{"bufferView":0,"byteOffset":396,"componentType":5126,"count":24,"type":"VEC3","min":[-0.23,-0.11,-0.26],"max":[0.23,0.11,0.26]},{"bufferView":1,"byteOffset":396,"componentType":5126,"count":24,"type":"VEC3"},{"bufferView":2,"byteOffset":312,"componentType":5125,"count":36,"type":"SCALAR"},{"bufferView":0,"byteOffset":684,"componentType":5126,"count":9,"type":"VEC3","min":[-0.17,0.0,-0.36],"max":[0.17,0.24,0.36]},{"bufferView":1,"byteOffset":684,"componentType":5126,"count":9,"type":"VEC3"},{"bufferView":2,"byteOffset":456,"componentType":5125,"count":42,"type":"SCALAR"},{"bufferView":0,"byteOffset":792,"componentType":5126,"count":24,"type":"VEC3","min":[-0.0225,-0.025,-0.775],"max":[0.0225,0.025,0.775]},{"bufferView":1,"byteOffset":792,"componentType":5126,"count":24,"type":"VEC3"},{"bufferView":2,"byteOffset":624,"componentType":5125,"count":36,"type":"SCALAR"},{"bufferView":0,"byteOffset":1080,"componentType":5126,"count":24,"type":"VEC3","min":[-0.04,-0.065,-0.25],"max":[0.04,0.065,0.25]},{"bufferView":1,"byteOffset":1080,"componentType":5126,"count":24,"type":"VEC3"},{"bufferView":2,"byteOffset":768,"componentType":5125,"count":36,"type":"SCALAR"},{"bufferView":0,"byteOffset":1368,"componentType":5126,"count":50,"type":"VEC3","min":[-0.13,-0.5,-0.5],"max":[0.13,0.5,0.5]},{"bufferView":1,"byteOffset":1368,"componentType":5126,"count":50,"type":"VEC3"},{"bufferView":2,"byteOffset":912,"componentType":5125,"count":288,"type":"SCALAR"},{"bufferView":0,"byteOffset":1968,"componentType":5126,"count":160,"type":"VEC3","min":[0,-0.47,-0.48],"max":[0,0.47,0.48]},{"bufferView":1,"byteOffset":1968,"componentType":5126,"count":160,"type":"VEC3"},{"bufferView":2,"byteOffset":2064,"componentType":5125,"count":1440,"type":"SCALAR"}]}