{"scene":0,"scenes":[{"nodes":[0]}],"asset":{"version":"2.0","generator":"https://github.com/mikedh/trimesh"},"accessors":[{"componentType":5125,"type":"SCALAR","bufferView":0,"count":768,"max":[127],"min":[0]},{"componentType":5126,"type":"VEC3","byteOffset":0,"bufferView":1,"count":128,"max":[0.20000000298023224,0.5,0.5],"min":[-0.20000000298023224,-0.5,-0.5]},{"componentType":5126,"type":"VEC3","byteOffset":0,"bufferView":2,"count":128,"max":[0.20999999344348907,0.3499999940395355,0.3499999940395355],"min":[-0.20999999344348907,-0.3499999940395355,-0.3499999940395355]},{"componentType":5126,"type":"VEC3","byteOffset":0,"bufferView":3,"count":128,"max":[0.22499999403953552,0.5,0.5],"min":[-0.22499999403953552,-0.5,-0.5]},{"componentType":5126,"type":"VEC3","byteOffset":0,"bufferView":4,"count":128,"max":[0.23499999940395355,0.3499999940395355,0.3499999940395355],"min":[-0.23499999940395355,-0.3499999940395355,-0.3499999940395355]},{"componentType":5125,"type":"SCALAR","bufferView":5,"count":384,"max":[65],"min":[0]},{"componentType":5126,"type":"VEC3","byteOffset":0,"bufferView":6,"count":66,"max":[0.36000001430511475,0.18000000715255737,1.25],"min":[-0.36000001430511475,-0.18000000715255737,-1.25]},{"componentType":5125,"type":"SCALAR","bufferView":7,"count":36,"max":[7],"min":[0]},{"componentType":5126,"type":"VEC3","byteOffset":0,"bufferView":8,"count":8,"max":[0.30000001192092896,0.37611761689186096,0.5384764671325684],"min":[-0.30000001192092896,-0.37611761689186096,-0.5384764671325684]},{"componentType":5126,"type":"VEC3","byteOffset":0,"bufferView":9,"count":8,"max":[0.3499999940395355,0.17499999701976776,0.4000000059604645],"min":[-0.3499999940395355,-0.17499999701976776,-0.4000000059604645]},{"componentType":5125,"type":"SCALAR","bufferView":10,"count":5232,"max":[905],"min":[0]},{"componentType":5126,"type":"VEC3","byteOffset":0,"bufferView":11,"count":906,"max":[0.3799999952316284,0.7699999809265137,1.1200000047683716],"min":[0.3400000035762787,0.2800000011920929,-1.1200000047683716]},{"componentType":5126,"type":"VEC3","byteOffset":0,"bufferView":12,"count":906,"max":[-0.3400000035762787,0.7699999809265137,1.1200000047683716],"min":[-0.3799999952316284,0.2800000011920929,-1.1200000047683716]}],"meshes":[{"name":"geometry_0","extras":{"shape":"annulus","r_min":0.35,"r_max":0.5,"height":0.4,"processed":true},"primitives":[{"attributes":{"POSITION":1},"indices":0,"mode":4}]},{"name":"geometry_1","extras":{"shape":"annulus","r_min":0.3,"r_max":0.35,"height":0.42,"processed":true},"primitives":[{"attributes":{"POSITION":2},"indices":0,"mode":4}]},{"name":"geometry_2","extras":{"shape":"annulus","r_min":0.35,"r_max":0.5,"height":0.45,"processed":true},"primitives":[{"attributes":{"POSITION":3},"indices":0,"mode":4}]},{"name":"geometry_3","extras":{"shape":"annulus","r_min":0.3,"r_max":0.35,"height":0.47,"processed":true},"primitives":[{"attributes":{"POSITION":4},"indices":0,"mode":4}]},{"name":"geometry_4","extras":{"shape":"cylinder","height":2.5,"radius":0.3,"processed":true},"primitives":[{"attributes":{"POSITION":6},"indices":5,"mode":4}]},{"name":"geometry_5","extras":{"shape":"box","extents":[0.6,0.4,1.0]},"primitives":[{"attributes":{"POSITION":8},"indices":7,"mode":4}]},{"name":"geometry_6","extras":{"shape":"box","extents":[0.7,0.35,0.8]},"primitives":[{"attributes":{"POSITION":9},"indices":7,"mode":4}]},{"name":"geometry_7","extras":{},"primitives":[{"attributes":{"POSITION":11},"indices":10,"mode":4}]},{"name":"geometry_8","extras":{},"primitives":[{"attributes":{"POSITION":12},"indices":10,"mode":4}]}],"nodes":[{"name":"world","children":[1,2,3,4,5,6,7,8,9]},{"name":"Wheel_FrontTire","mesh":0,"matrix":[1.0,0.0,0.0,0.0,0.0,1.0,0.0,0.0,0.0,0.0,1.0,0.0,0.0,0.5,1.0,1.0]},{"name":"Neon_Wheel_FrontRim","mesh":1,"matrix":[1.0,0.0,0.0,0.0,0.0,1.0,0.0,0.0,0.0,0.0,1.0,0.0,0.0,0.5,1.0,1.0]},{"name":"Wheel_RearTire","mesh":2,"matrix":[1.0,0.0,0.0,0.0,0.0,1.0,0.0,0.0,0.0,0.0,1.0,0.0,0.0,0.5,-1.0,1.0]},{"name":"Neon_Wheel_RearRim","mesh":3,"matrix":[1.0,0.0,0.0,0.0,0.0,1.0,0.0,0.0,0.0,0.0,1.0,0.0,0.0,0.5,-1.0,1.0]},{"name":"Body","mesh":4,"matrix":[1.0,0.0,0.0,0.0,0.0,1.0,0.0,0.0,0.0,0.0,1.0,0.0,0.0,0.5,0.0,1.0]},{"name":"Cockpit","mesh":5,"matrix":[1.0,0.0,0.0,0.0,0.0,1.0,0.0,0.0,0.0,0.0,1.0,0.0,0.0,0.75,0.25,1.0]},{"name":"Engine","mesh":6,"matrix":[1.0,0.0,0.0,0.0,0.0,1.0,0.0,0.0,0.0,0.0,1.0,0.0,0.0,0.55,-0.6,1.0]},{"name":"Neon_BodyStripLeft","mesh":7},{"name":"Neon_BodyStripRight","mesh":8}],"buffers":[{"uri":"gltf_buffer_0.bin","byteLength":3072},{"uri":"gltf_buffer_1.bin","byteLength":1536},{"uri":"gltf_buffer_2.bin","byteLength":1536},{"uri":"gltf_buffer_3.bin","byteLength":1536},{"uri":"gltf_buffer_4.bin","byteLength":1536},{"uri":"gltf_buffer_5.bin","byteLength":1536},{"uri":"gltf_buffer_6.bin","byteLength":792},{"uri":"gltf_buffer_7.bin","byteLength":144},{"uri":"gltf_buffer_8.bin","byteLength":96},{"uri":"gltf_buffer_9.bin","byteLength":96},{"uri":"gltf_buffer_10.bin","byteLength":20928},{"uri":"gltf_buffer_11.bin","byteLength":10872},{"uri":"gltf_buffer_12.bin","byteLength":10872}],"bufferViews":[{"buffer":0,"byteOffset":0,"byteLength":3072},{"buffer":1,"byteOffset":0,"byteLength":1536},{"buffer":2,"byteOffset":0,"byteLength":1536},{"buffer":3,"byteOffset":0,"byteLength":1536},{"buffer":4,"byteOffset":0,"byteLength":1536},{"buffer":5,"byteOffset":0,"byteLength":1536},{"buffer":6,"byteOffset":0,"byteLength":792},{"buffer":7,"byteOffset":0,"byteLength":144},{"buffer":8,"byteOffset":0,"byteLength":96},{"buffer":9,"byteOffset":0,"byteLength":96},{"buffer":10,"byteOffset":0,"byteLength":20928},{"buffer":11,"byteOffset":0,"byteLength":10872},{"buffer":12,"byteOffset":0,"byteLength":10872}]}